# xmcd
#
# Track frame offsets:
# 150
# 16428
# 33091
# 54280
# 70943
# 86644
# 100161
# 111426
# 123183
# 137118
# 150205
# 163810
#
# Disc length: 2437 seconds
#
#
# Revision: 0
# Processed by: cddbd v1.5.2PL0 Copyright (c) Steve Scherf et al.
# Submitted via: FreeRIP 2.96 
#
DISCID=9209830c
DTITLE=Various Artist - Delta Swamp Rock
DYEAR=2011
DGENRE=Folk/Rock
TTITLE0=Lynyrd Skynryd - The Seasons
TTITLE1=Barefoot Jerry - Smokies
TTITLE2=Joe South - Hush
TTITLE3=Bobbie Gentrie - Papa, Won't You Let Me Go To Town With You
TTITLE4=Area Code 615 - Stone Fox Chase
TTITLE5=Duane and Gregg Allman - God Rest His Soul
TTITLE6=Cher - I Walk On Guilded Splinters
TTITLE7=Cowboy - Please Be With Me
TTITLE8=The Allman Brothers - Ain't Wastin' Time No More
TTITLE9=Link Wray - Be What You Want To
TTITLE10=Boz Scaggs - I'll Be Long Gone
TTITLE11=Bobbie Gentry - Seasons Come, Seasons Go
EXTD=
EXTT0=
EXTT1=
EXTT2=
EXTT3=
EXTT4=
EXTT5=
EXTT6=
EXTT7=
EXTT8=
EXTT9=
EXTT10=
EXTT11=
PLAYORDER=
